<?xml version="1.0" encoding="UTF-8" standalone="no"?>
<!DOCTYPE svg PUBLIC "-//W3C//DTD SVG 1.1//EN" "http://www.w3.org/Graphics/SVG/1.1/DTD/svg11.dtd">
<svg version="1.1" xmlns="http://www.w3.org/2000/svg" xmlns:xlink="http://www.w3.org/1999/xlink" preserveAspectRatio="xMidYMid meet" viewBox="0 0 640 640" width="640" height="640"><defs><path d="M379.03 302.02C387.32 302.02 394.05 308.75 394.05 317.04C394.05 341.4 394.05 399.44 394.05 423.79C394.05 432.09 387.32 438.81 379.03 438.81C349.13 438.81 274.44 438.81 244.54 438.81C236.25 438.81 229.52 432.09 229.52 423.79C229.52 399.44 229.52 341.4 229.52 317.04C229.52 308.75 236.25 302.02 244.54 302.02C274.44 302.02 349.13 302.02 379.03 302.02Z" id="b63EDrsBjw"></path><path d="M229.23 429.29L321.93 403.1L354.66 385.85L385.74 361.62L400.19 329L376.84 344.18L331.71 360.35L290.54 344.3L235.05 324.14L229.23 429.29Z" id="c14j5BlWYJ"></path><path d="M411.94 441.88C411.98 445.4 409.17 448.28 405.65 448.32C365.74 448.79 252.36 450.12 212.44 450.59C208.93 450.63 206.04 447.82 206 444.3C205.93 438.46 205.8 427.28 205.73 421.43C205.69 417.91 208.51 415.03 212.02 414.99C251.94 414.52 365.32 413.19 405.23 412.72C408.75 412.68 411.63 415.49 411.67 419.01C411.74 424.85 411.87 436.04 411.94 441.88Z" id="b2qIHtGk7t"></path><path d="M432.66 120C443.15 120 451.42 128.96 450.57 139.42C447.31 179.54 444.66 212.17 442.79 235.22C437.59 299.26 396.12 354.64 336.13 377.65C329.57 380.17 353.69 370.92 333.55 378.65C314.14 386.09 292.63 385.83 273.41 377.92C256.3 370.88 245.75 366.53 231.35 360.6C205.03 349.77 187.86 324.12 187.86 295.67C187.86 260.53 187.86 180.13 187.86 139.49C187.86 128.72 196.58 120 207.34 120C256.3 120 383.7 120 432.66 120Z" id="b2Q9PVmis"></path><path d="M314.55 124.23L297.76 136.2L248.57 157.5L200 160L185.48 200L190.24 235.48L205.71 267.62L209.29 240L210.48 192.62L240 170.48C267.98 157.32 285.46 149.1 292.46 145.82C302.04 141.31 309.82 133.71 314.55 124.23C314.55 124.23 314.55 124.23 314.55 124.23Z" id="b2SdsWC7Ik"></path><path d="M251.08 7.22L254.72 7.47L258.31 7.79L261.86 8.19L265.35 8.67L268.79 9.22L272.16 9.86L275.48 10.57L278.73 11.37L281.91 12.26L285.02 13.23L288.06 14.28L291.02 15.43L293.89 16.67L296.69 17.99L299.4 19.41L302.02 20.93L304.55 22.54L306.99 24.25L309.33 26.06L310.04 26.66L310.1 26.59L310.28 26.39L310.46 26.2L310.64 26L310.82 25.81L310.99 25.62L311.16 25.43L311.33 25.24L311.49 25.06L311.65 24.87L311.81 24.69L311.97 24.51L312.12 24.33L313.38 22.86L314.67 21.47L315.98 20.17L317.31 18.95L318.65 17.8L320.02 16.72L321.41 15.72L322.81 14.78L324.24 13.91L325.68 13.11L327.15 12.37L328.64 11.68L330.14 11.06L331.67 10.49L333.22 9.97L334.78 9.5L336.37 9.07L337.98 8.7L339.61 8.36L341.26 8.07L342.92 7.81L344.61 7.59L346.33 7.4L348.06 7.24L349.81 7.11L351.58 7L353.38 6.92L355.19 6.86L357.03 6.82L358.89 6.8L360.76 6.78L362.66 6.78L364.59 6.79L366.53 6.81L368.49 6.83L370.48 6.85L372.48 6.87L374.51 6.89L376.56 6.9L378.63 6.9L382.41 6.99L386.18 7.23L389.94 7.64L393.67 8.2L397.38 8.92L401.06 9.79L404.7 10.8L408.31 11.96L411.87 13.25L415.39 14.68L418.85 16.24L422.26 17.94L425.61 19.75L428.9 21.69L432.12 23.75L435.26 25.92L438.33 28.21L441.32 30.6L444.22 33.09L447.03 35.69L449.74 38.38L452.36 41.17L454.87 44.05L457.28 47.02L459.57 50.06L461.75 53.19L463.8 56.4L465.73 59.68L467.53 63.03L469.2 66.44L470.73 69.92L472.12 73.45L473.36 77.05L474.45 80.69L475.38 84.38L476.15 88.12L476.76 91.9L477.2 95.72L477.47 99.57L477.56 103.45L477.55 104.72L477.52 106.01L477.47 107.34L477.4 108.69L477.32 110.07L477.21 111.48L477.09 112.9L476.95 114.34L476.79 115.79L476.62 117.26L476.43 118.74L476.22 120.23L475.99 121.73L475.75 123.22L475.5 124.72L475.23 126.22L474.94 127.72L474.64 129.2L474.32 130.68L473.99 132.15L473.65 133.61L473.29 135.05L472.92 136.47L472.54 137.87L472.14 139.25L471.74 140.61L471.32 141.93L470.88 143.23L470.44 144.5L469.99 145.73L469.52 146.92L469.04 148.07L468.56 149.18L468.06 150.25L467.56 151.27L467.04 152.24L466.52 153.16L465.98 154.02L465.44 154.83L464.89 155.58L463.7 157.06L462.47 158.44L461.22 159.72L459.93 160.91L458.62 162.01L457.3 163.02L455.95 163.94L454.59 164.78L453.21 165.54L451.83 166.23L450.44 166.84L449.04 167.38L447.64 167.86L446.25 168.27L444.86 168.62L443.48 168.92L442.11 169.15L440.75 169.34L439.4 169.48L438.08 169.57L436.78 169.62L435.5 169.63L434.25 169.6L433.03 169.54L431.84 169.44L430.69 169.32L429.58 169.18L428.52 169.01L427.49 168.83L426.51 168.63L425.59 168.42L424.72 168.19L423.9 167.96L423.14 167.73L422.45 167.5L421.82 167.27L421.25 167.04L420.76 166.82L420.34 166.62L420 166.43L419.4 166.12L418.51 165.75L417.35 165.3L415.91 164.79L414.23 164.21L412.32 163.57L410.18 162.86L407.84 162.1L405.3 161.27L402.59 160.39L399.71 159.46L396.68 158.47L393.52 157.44L390.24 156.35L386.85 155.22L383.37 154.04L379.81 152.82L376.19 151.56L372.52 150.26L368.81 148.93L365.09 147.55L361.36 146.15L357.64 144.71L353.94 143.25L350.27 141.76L346.66 140.24L343.12 138.7L339.65 137.13L336.28 135.55L333.02 133.95L329.88 132.33L326.88 130.7L324.03 129.06L321.34 127.4L318.84 125.74L316.53 124.08L315 122.86L313.21 124.99L311.18 127.22L309.07 129.38L306.87 131.48L304.59 133.51L302.24 135.46L299.82 137.35L297.32 139.16L294.75 140.91L292.13 142.58L289.44 144.18L286.69 145.7L283.89 147.15L281.04 148.53L278.14 149.83L275.19 151.06L272.2 152.21L269.18 153.28L266.11 154.28L263.02 155.2L259.9 156.04L256.75 156.8L253.58 157.48L250.39 158.08L249.84 158.18L249.3 158.27L248.76 158.36L248.21 158.44L247.67 158.53L247.12 158.61L246.58 158.69L246.03 158.77L245.49 158.84L244.94 158.92L244.39 158.99L243.85 159.06L243.3 159.12L242.75 159.19L242.2 159.25L241.65 159.31L241.11 159.36L240.56 159.42L240.01 159.47L239.46 159.52L238.91 159.56L238.36 159.61L237.81 159.65L237.26 159.69L236.71 159.73L236.16 159.76L235.61 159.8L235.07 159.83L234.52 159.85L233.97 159.88L233.42 159.9L232.87 159.92L232.32 159.94L231.77 159.96L231.22 159.97L230.67 159.98L230.12 159.99L229.57 160L229.02 160L228.47 160L224.68 160L220.9 159.99L217.12 159.96L213.35 159.92L209.61 159.85L205.88 159.76L202.17 159.63L198.5 159.47L194.87 159.26L191.28 159.01L187.73 158.71L184.23 158.35L180.79 157.94L177.41 157.46L174.09 156.9L170.85 156.28L167.68 155.57L164.59 154.79L161.58 153.91L158.67 152.94L155.85 151.88L153.13 150.71L150.51 149.43L148 148.05L145.61 146.54L143.33 144.92L141.18 143.17L139.16 141.29L137.27 139.28L135.52 137.13L133.92 134.83L132.46 132.38L131.16 129.78L130.01 127.03L129.03 124.11L128.21 121.02L127.57 117.76L127.1 114.33L126.82 110.71L126.73 106.9L126.84 103.01L127.19 99.14L127.75 95.3L128.53 91.48L129.52 87.69L130.7 83.93L132.08 80.22L133.65 76.55L135.39 72.92L137.31 69.35L139.39 65.84L141.63 62.39L144.02 59L146.55 55.67L149.22 52.42L152.02 49.25L154.94 46.16L157.98 43.16L161.13 40.24L164.38 37.42L167.72 34.69L171.15 32.06L174.66 29.55L178.25 27.14L181.9 24.84L185.61 22.66L189.37 20.61L193.18 18.68L197.03 16.88L200.91 15.22L204.81 13.7L208.74 12.32L212.67 11.08L216.6 10L220.53 9.07L224.45 8.3L228.36 7.7L232.24 7.26L236.08 6.99L239.89 6.91L243.66 6.94L247.39 7.04L251.08 7.22Z" id="cGXt9NTxM"></path><path d="M383.57 203.81C383.57 216.95 376.48 227.62 367.74 227.62C359 227.62 351.9 216.95 351.9 203.81C351.9 190.67 357.91 185.43 366.65 185.43C375.39 185.43 383.57 190.67 383.57 203.81Z" id="bYa9GVwys"></path><path d="M476.75 435.68C529.39 435.44 572.27 477.91 572.52 530.55C572.62 552.2 572.7 568.41 572.86 601.71C572.95 622.19 556.43 638.88 535.94 638.98C435.17 639.46 169.95 640.71 69.18 641.19C48.69 641.29 32 624.76 31.91 604.27C31.75 570.98 31.74 569.46 31.66 551.49C31.36 488.7 82.02 437.56 144.81 437.26C230.26 436.85 387.63 436.11 476.75 435.68Z" id="a4HjQ9J6T1"></path><path d="M355.8 293.86C340.18 317.11 323.82 328.74 306.73 328.74C289.64 328.74 271.4 317.41 252.02 294.74C268.04 303.12 284.6 307.31 301.69 307.31C318.78 307.31 336.82 302.83 355.8 293.86Z" id="b1fifRQLgf"></path><path d="M222.8 350.82C212.59 334.48 210.1 314.47 215.99 296.13C218.18 289.29 214.24 301.56 216.13 295.69C223.11 273.93 222.03 250.39 213.09 229.36C208.72 219.07 207.62 216.48 202.79 205.11C195.35 187.6 194.64 167.95 200.8 149.95C204.36 139.54 207.96 129.05 212.14 116.83C215.31 107.56 208.42 97.91 198.61 97.91C185.47 97.91 166.04 97.91 152.9 97.91C140.9 97.91 130.2 105.45 126.16 116.74C126.16 116.74 126.16 116.74 126.16 116.74C133.59 128.62 119.58 145.46 113.88 157.91C112.88 160.11 104.79 171.52 103.38 173.55C99.89 178.57 95.44 200.98 90.04 240.77L95.99 291.24C94.2 294.66 93.07 296.79 92.62 297.64C85.59 310.98 81.65 325.73 81.07 340.8C80.63 352.38 79.53 381.32 77.76 427.62L87.41 439.24C87.41 439.24 87.41 439.24 87.41 439.24C116.02 447.69 146.94 442.07 170.76 424.1C170.76 424.1 170.76 424.1 170.76 424.1C170.76 424.1 170.76 424.1 170.76 424.1C173.63 432.73 185.95 432.43 188.4 423.67C188.43 423.57 188.5 423.32 188.61 422.91C188.61 422.91 188.61 422.91 188.61 422.91C201.62 435.81 223.74 429.29 227.66 411.39C229.38 403.58 228.36 408.23 230.8 397.12C234.28 381.23 231.41 364.62 222.8 350.82C219.58 345.67 225.48 355.12 222.8 350.82Z" id="ccsGnaZ21"></path><path d="" id="btB8VGIW"></path><path d="M217.71 442.35C232.82 428.23 239.87 407.49 236.49 387.09C235.91 383.54 234.44 374.67 232.09 360.48L206.71 318.58C206.7 318.58 206.69 318.58 206.69 318.58C178 317.55 160.59 286.5 174.66 261.48C176.62 257.99 168.49 272.45 174.66 261.48C179.05 253.68 173.41 244.05 164.47 244.05C151.32 244.05 131.9 244.05 118.75 244.05C106.76 244.05 96.06 251.58 92.02 262.88C92.02 262.88 92.02 262.88 92.02 262.88C99.44 274.76 85.44 291.6 79.74 304.05C78.73 306.24 70.64 317.65 69.23 319.68C65.74 324.71 61.3 347.11 55.9 386.9L51.13 437.38C47.75 448.78 45.64 455.9 44.79 458.75C44.79 458.75 31.34 502.55 31.34 502.55C28.56 511.31 25.33 521.49 22.09 531.68C20.58 536.42 25.96 540.35 30.02 537.49C33.12 535.3 40.87 529.84 53.26 521.09L76.84 516.33L112.52 510.84C123.14 510.86 129.78 510.87 132.44 510.88C153.38 510.92 172.43 498.76 181.21 479.74C181.35 479.44 181.7 478.67 182.27 477.43C182.66 477.25 182.91 477.13 183.01 477.09C194.87 471.51 204.68 462.34 211.04 450.88C211.57 449.92 209.08 454.4 211.04 450.88C212.8 447.7 215.05 444.82 217.71 442.35C222.55 437.83 216.91 443.09 217.71 442.35Z" id="a5ZOzJwTjd"></path><path d="M289.82 12.76C289.82 12.76 280.24 10.77 280.24 10.77C276.83 10.18 281.2 10.93 280.24 10.77C280.24 10.77 246 6.42 246 6.42C242.98 6.18 245.49 6.38 241.06 6.02C234.33 5.48 227.56 6.17 221.09 8.07C217.31 9.18 223.05 7.5 221.09 8.07C208.55 11.75 196.52 16.98 185.28 23.64C179.99 26.78 180.52 26.46 175.1 29.68C164.34 36.05 154.93 44.46 147.38 54.43C143.57 59.47 134.05 72.05 118.81 92.19C115.15 98.77 112.87 102.88 111.96 104.53C107.81 112 104.45 119.88 101.94 128.05C100.37 133.14 96.44 145.89 90.17 166.29L84.29 193.38L78.81 230.02C78.55 237.6 78.39 242.33 78.33 244.23C77.54 267.55 74.1 290.72 68.08 313.27C68.08 313.27 68.08 313.27 68.08 313.27L23.62 531.57C46.27 494 60.43 470.52 66.1 461.13C75.9 444.89 82.02 426.69 84.04 407.82C85.86 390.72 85.95 389.93 87.19 378.29C91.17 341.13 99.94 304.65 113.28 269.74C114.74 265.92 118.4 256.36 124.24 241.07L164.24 117.81C177.13 100.57 185.19 89.79 188.41 85.48C200.41 69.42 217.14 57.51 236.25 51.43C246.13 48.28 270.85 40.4 310.39 27.8C310.22 27.46 310.11 27.24 310.07 27.16C306.66 20.31 300.4 15.32 292.97 13.52C291.39 13.14 292.79 13.48 289.82 12.76Z" id="e1UJSUgjvd"></path><path d="M480 188.45C480 205.86 467.09 220 451.19 220C435.29 220 422.38 205.86 422.38 188.45C422.38 171.04 435.29 156.9 451.19 156.9C467.09 156.9 480 171.04 480 188.45Z" id="c2rzYHg9sS"></path><path d="M458.95 220C458.95 225.52 454.47 230 448.95 230C443.44 230 438.95 225.52 438.95 220C438.95 214.48 443.44 210 448.95 210C454.47 210 458.95 214.48 458.95 220Z" id="bnLXEz2gv"></path><path d="M177.14 148.57C177.14 159.74 158.35 175.95 145.48 175.95C132.6 175.95 130.48 159.74 130.48 148.57C130.48 137.4 150.46 120 163.33 120C176.21 120 177.14 137.4 177.14 148.57Z" id="ajVg42p4P"></path><path d="M204.46 105.64C208.41 102.99 213.78 105.28 214.6 109.97C216.15 118.88 219.08 135.64 220.64 144.56C221.55 149.79 217.58 154.62 212.26 154.72C201.81 154.92 180.57 155.32 170.12 155.52C164.56 155.63 160 151.15 160 145.6C160 143.57 160 147.62 160 145.6C160 139.27 163.15 133.36 168.4 129.84C177.29 123.87 195.56 111.61 204.46 105.64Z" id="jejVlKnHv"></path><path d="M103.22 189.88C99.27 192.54 93.9 190.24 93.08 185.55C91.52 176.64 88.59 159.88 87.04 150.97C86.12 145.73 90.09 140.91 95.41 140.81C105.87 140.61 127.11 140.2 137.56 140C143.11 139.9 147.68 144.37 147.68 149.93C147.68 151.95 147.68 147.9 147.68 149.93C147.68 156.25 144.53 162.16 139.27 165.69C130.38 171.65 112.11 183.92 103.22 189.88Z" id="a1fFtvYdh"></path><path d="M88.17 157.9C90.13 166.63 89.86 182.16 93.34 190.4C94.32 192.72 94.54 189.54 95.64 191.81C95.67 191.88 95.78 192.03 95.99 192.26C100 196.8 107.47 194.77 108.64 188.83C110.75 178.09 115.48 154.05 117.91 141.73C118.51 138.64 115.71 135.97 112.66 136.73C107.12 138.11 96.98 140.64 91.42 142.03C87.84 142.92 85.63 146.51 86.43 150.12C85.47 145.8 86.05 148.39 88.17 157.9Z" id="f2aipVG3a"></path><path d="M147.14 151.31C147.14 167.14 163.23 176.43 147.86 176.43C132.48 176.43 128.33 167.14 128.33 151.31C128.33 140.75 138.02 130.32 157.38 120C150.56 130.32 147.14 140.75 147.14 151.31Z" id="a5ACv4eTa3"></path><path d="M263.33 203.81C263.33 216.95 256.24 227.62 247.5 227.62C238.76 227.62 231.67 216.95 231.67 203.81C231.67 190.67 238.76 185.43 247.5 185.43C256.24 185.43 263.33 190.67 263.33 203.81Z" id="epxA41s8N"></path><path d="M184.76 143.21C184.76 149.46 186.83 154.52 180 154.52C173.17 154.52 160 149.46 160 143.21C160 136.97 173.17 123.57 180 123.57C186.83 123.57 184.76 136.97 184.76 143.21Z" id="crBXu9wC1"></path><path d="M318.81 522.28C318.81 533.78 310.27 543.12 299.76 543.12C289.25 543.12 280.71 533.78 280.71 522.28C280.71 510.78 289.25 501.45 299.76 501.45C310.27 501.45 318.81 510.78 318.81 522.28Z" id="c4x4xwpHev"></path><path d="M317.38 599.42C317.38 610.92 308.85 620.26 298.33 620.26C287.82 620.26 279.29 610.92 279.29 599.42C279.29 587.93 287.82 578.59 298.33 578.59C308.85 578.59 317.38 587.93 317.38 599.42Z" id="a1Czm26nVq"></path><path d="M560.82 613.25C567.21 613.25 572.38 618.43 572.38 624.81C572.38 627.74 572.38 624.95 572.38 627.88C572.38 634.26 567.21 639.44 560.82 639.44C536.23 639.44 474.01 639.44 449.42 639.44C443.03 639.44 437.86 634.26 437.86 627.88C437.86 624.95 437.86 627.74 437.86 624.81C437.86 618.43 443.03 613.25 449.42 613.25C474.01 613.25 536.23 613.25 560.82 613.25Z" id="a9gRN2piHR"></path><path d="M152.25 617.46C158.63 617.46 163.81 622.64 163.81 629.02C163.81 631.95 163.81 629.17 163.81 632.09C163.81 638.48 158.63 643.65 152.25 643.65C127.66 643.65 65.44 643.65 40.85 643.65C34.46 643.65 29.29 638.48 29.29 632.09C29.29 629.17 29.29 631.95 29.29 629.02C29.29 622.64 34.46 617.46 40.85 617.46C65.44 617.46 127.66 617.46 152.25 617.46Z" id="b5xwulvfaX"></path><path d="M420 206.05C420 233.94 397.11 256.59 368.91 256.59C352.84 256.59 336.32 257.93 326.95 246.43C319.88 237.76 317.83 218.04 317.83 206.05C317.83 192.38 317.89 188.66 326.81 179.56C336.1 170.09 354.53 173.98 368.91 173.98C378.59 173.98 395.73 173 420.34 171.03C421.14 170.97 421.81 171.64 421.75 172.44C420.58 186.49 420 197.69 420 206.05Z" id="e5n160R9z"></path><path d="M310.22 201.15L310.22 201.15L295 201.15L310.22 201.15Z" id="aoSQqWubo"></path><path d="M318.91 203.33C317.94 202.92 317.33 202.67 317.09 202.57C309.96 199.6 301.9 199.88 295 203.33C295 203.33 295 203.33 295 203.33" id="cVZqB7FEH"></path><path d="M193.92 208.65C193.92 236.55 216.82 259.2 245.01 259.2C261.08 259.2 277.61 260.54 286.97 249.04C294.04 240.37 296.1 220.65 296.1 208.65C296.1 194.99 296.04 191.27 287.11 182.17C277.83 172.7 259.39 176.59 245.01 176.59C235.34 176.59 218.2 175.61 193.58 173.64C192.78 173.58 192.11 174.25 192.18 175.05C193.34 189.09 193.92 200.3 193.92 208.65Z" id="b4nbkhIFNT"></path></defs><g><g><g><use xlink:href="#b63EDrsBjw" opacity="1" fill="#edc182" fill-opacity="1"></use></g><g><use xlink:href="#c14j5BlWYJ" opacity="1" fill="#e6b164" fill-opacity="1"></use><g><use xlink:href="#c14j5BlWYJ" opacity="1" fill-opacity="0" stroke="#e6b164" stroke-width="1" stroke-opacity="1"></use></g></g><g><use xlink:href="#b2qIHtGk7t" opacity="1" fill="#0a0a60" fill-opacity="1"></use></g><g><use xlink:href="#b2Q9PVmis" opacity="1" fill="#edc182" fill-opacity="1"></use></g><g><use xlink:href="#b2SdsWC7Ik" opacity="1" fill="#e6b164" fill-opacity="1"></use><g><use xlink:href="#b2SdsWC7Ik" opacity="1" fill-opacity="0" stroke="#e6b164" stroke-width="1" stroke-opacity="1"></use></g></g><g><use xlink:href="#cGXt9NTxM" opacity="1" fill="#6e4b19" fill-opacity="1"></use></g><g><use xlink:href="#bYa9GVwys" opacity="1" fill="#4d391b" fill-opacity="1"></use></g><g><use xlink:href="#a4HjQ9J6T1" opacity="1" fill="#030321" fill-opacity="1"></use></g><g><use xlink:href="#b1fifRQLgf" opacity="1" fill="#d26752" fill-opacity="1"></use></g><g><use xlink:href="#ccsGnaZ21" opacity="1" fill="#6e4b19" fill-opacity="1"></use></g><g><g><use xlink:href="#btB8VGIW" opacity="1" fill-opacity="0" stroke="#000000" stroke-width="1" stroke-opacity="1"></use></g></g><g><use xlink:href="#a5ZOzJwTjd" opacity="1" fill="#6e4b19" fill-opacity="1"></use></g><g><use xlink:href="#e1UJSUgjvd" opacity="1" fill="#634313" fill-opacity="1"></use><g><use xlink:href="#e1UJSUgjvd" opacity="1" fill-opacity="0" stroke="#68481a" stroke-width="1" stroke-opacity="1"></use></g></g><g><use xlink:href="#c2rzYHg9sS" opacity="1" fill="#edc182" fill-opacity="1"></use></g><g><use xlink:href="#bnLXEz2gv" opacity="1" fill="#a4202f" fill-opacity="1"></use></g><g><use xlink:href="#ajVg42p4P" opacity="1" fill="#ae2131" fill-opacity="1"></use></g><g><use xlink:href="#jejVlKnHv" opacity="1" fill="#ae2131" fill-opacity="1"></use></g><g><use xlink:href="#a1fFtvYdh" opacity="1" fill="#ae2131" fill-opacity="1"></use></g><g><use xlink:href="#f2aipVG3a" opacity="1" fill="#811e2a" fill-opacity="1"></use><g><use xlink:href="#f2aipVG3a" opacity="1" fill-opacity="0" stroke="#811e2a" stroke-width="1" stroke-opacity="1"></use></g></g><g><use xlink:href="#a5ACv4eTa3" opacity="1" fill="#841b28" fill-opacity="1"></use></g><g><use xlink:href="#epxA41s8N" opacity="1" fill="#4d391b" fill-opacity="1"></use></g><g><use xlink:href="#crBXu9wC1" opacity="1" fill="#841b28" fill-opacity="1"></use></g><g><use xlink:href="#c4x4xwpHev" opacity="1" fill="#ffffff" fill-opacity="1"></use></g><g><use xlink:href="#a1Czm26nVq" opacity="1" fill="#ffffff" fill-opacity="1"></use></g><g><use xlink:href="#a9gRN2piHR" opacity="1" fill="#891c2a" fill-opacity="1"></use></g><g><use xlink:href="#b5xwulvfaX" opacity="1" fill="#891c2a" fill-opacity="1"></use></g><g><g><use xlink:href="#e5n160R9z" opacity="1" fill-opacity="0" stroke="#924067" stroke-width="3.78" stroke-opacity="1"></use></g></g><g><use xlink:href="#aoSQqWubo" opacity="1" fill="#891c2a" fill-opacity="1"></use></g><g><g><use xlink:href="#cVZqB7FEH" opacity="1" fill-opacity="0" stroke="#654618" stroke-width="1" stroke-opacity="1"></use></g></g><g><g><use xlink:href="#b4nbkhIFNT" opacity="1" fill-opacity="0" stroke="#924067" stroke-width="3.78" stroke-opacity="1"></use></g></g></g></g></svg>