<?xml version="1.0" encoding="UTF-8" standalone="no"?>
<!DOCTYPE svg PUBLIC "-//W3C//DTD SVG 1.1//EN" "http://www.w3.org/Graphics/SVG/1.1/DTD/svg11.dtd">
<svg version="1.1" xmlns="http://www.w3.org/2000/svg" xmlns:xlink="http://www.w3.org/1999/xlink" preserveAspectRatio="xMidYMid meet" viewBox="0 0 640 640" width="640" height="640"><defs><path d="M379.03 302.02C387.32 302.02 394.05 308.75 394.05 317.04C394.05 341.4 394.05 399.44 394.05 423.79C394.05 432.09 387.32 438.81 379.03 438.81C349.13 438.81 274.44 438.81 244.54 438.81C236.25 438.81 229.52 432.09 229.52 423.79C229.52 399.44 229.52 341.4 229.52 317.04C229.52 308.75 236.25 302.02 244.54 302.02C274.44 302.02 349.13 302.02 379.03 302.02Z" id="bSDhDbNYM"></path><path d="M229.23 429.29L321.93 403.1L354.66 385.85L385.74 361.62L400.19 329L376.84 344.18L331.71 360.35L290.54 344.3L235.05 324.14L229.23 429.29Z" id="a2RHpHZbI"></path><path d="M411.94 441.88C411.98 445.4 409.17 448.28 405.65 448.32C365.74 448.79 252.36 450.12 212.44 450.59C208.93 450.63 206.04 447.82 206 444.3C205.93 438.46 205.8 427.28 205.73 421.43C205.69 417.91 208.51 415.03 212.02 414.99C251.94 414.52 365.32 413.19 405.23 412.72C408.75 412.68 411.63 415.49 411.67 419.01C411.74 424.85 411.87 436.04 411.94 441.88Z" id="a1DWsiVPXf"></path><path d="M432.66 120C443.15 120 451.42 128.96 450.57 139.42C447.31 179.54 441.36 252.88 438.66 286.1C435.99 319.04 414.65 347.53 383.79 359.37C367.7 365.54 353.69 370.92 333.55 378.65C314.14 386.09 292.63 385.83 273.41 377.92C256.3 370.88 245.75 366.53 231.35 360.6C205.03 349.77 187.86 324.12 187.86 295.67C187.86 260.53 187.86 180.13 187.86 139.49C187.86 128.72 196.58 120 207.34 120C256.3 120 383.7 120 432.66 120Z" id="b1TNRGgGCZ"></path><path d="M366.53 6.81L368.49 6.83L370.48 6.85L372.48 6.87L374.51 6.89L376.56 6.9L378.63 6.9L382.41 6.99L386.18 7.23L389.94 7.64L393.67 8.2L397.38 8.92L401.06 9.79L404.7 10.8L408.31 11.96L411.87 13.25L415.39 14.68L418.85 16.24L422.26 17.94L425.61 19.75L428.9 21.69L432.12 23.75L435.26 25.92L438.33 28.21L441.32 30.6L444.22 33.09L447.03 35.69L449.74 38.38L452.36 41.17L454.87 44.05L457.28 47.02L459.57 50.06L461.75 53.19L463.8 56.4L465.73 59.68L467.53 63.03L469.2 66.44L470.73 69.92L472.12 73.45L473.36 77.05L474.45 80.69L475.38 84.38L476.15 88.12L476.76 91.9L477.2 95.72L477.47 99.57L477.56 103.45L477.55 104.72L477.52 106.01L477.47 107.34L477.4 108.69L477.32 110.07L477.21 111.48L477.09 112.9L476.95 114.34L476.79 115.79L476.62 117.26L476.43 118.74L476.22 120.23L475.99 121.73L475.75 123.22L475.5 124.72L475.23 126.22L474.94 127.72L474.64 129.2L474.32 130.68L473.99 132.15L473.65 133.61L473.29 135.05L472.92 136.47L472.54 137.87L472.14 139.25L471.74 140.61L471.32 141.93L470.88 143.23L470.44 144.5L469.99 145.73L469.52 146.92L469.04 148.07L468.56 149.18L468.06 150.25L467.56 151.27L467.04 152.24L466.52 153.16L465.98 154.02L465.44 154.83L464.89 155.58L463.7 157.06L462.47 158.44L461.22 159.72L459.93 160.91L458.62 162.01L457.3 163.02L455.95 163.94L454.59 164.78L453.21 165.54L451.83 166.23L450.44 166.84L449.04 167.38L447.64 167.86L446.25 168.27L444.86 168.62L443.48 168.92L442.11 169.15L440.75 169.34L439.4 169.48L438.08 169.57L436.78 169.62L435.5 169.63L434.25 169.6L433.03 169.54L431.84 169.44L430.69 169.32L429.58 169.18L428.52 169.01L427.49 168.83L426.51 168.63L425.59 168.42L424.72 168.19L423.9 167.96L423.14 167.73L422.45 167.5L421.82 167.27L421.25 167.04L420.76 166.82L420.34 166.62L420 166.43L419.4 166.16L418.5 165.88L417.31 165.6L415.85 165.31L414.14 165L412.18 164.69L410 164.36L407.61 164.02L405.02 163.66L402.25 163.28L399.3 162.88L396.21 162.46L392.98 162.02L389.62 161.56L386.16 161.07L382.6 160.55L378.97 160L375.27 159.42L371.51 158.81L367.73 158.17L363.92 157.49L360.11 156.77L356.31 156.02L352.53 155.22L348.79 154.39L345.1 153.51L341.48 152.59L337.95 151.62L334.51 150.6L331.19 149.54L327.99 148.42L324.93 147.26L322.03 146.04L319.3 144.76L316.76 143.43L314.42 142.04L313.54 141.44L312.11 142.56L309.68 144.27L307.13 145.86L304.47 147.35L301.71 148.74L298.85 150.03L295.89 151.21L292.84 152.31L289.71 153.31L286.5 154.23L283.21 155.06L279.85 155.81L276.44 156.49L272.96 157.09L269.43 157.63L265.84 158.1L262.22 158.51L258.56 158.86L254.86 159.16L251.13 159.4L247.39 159.6L243.62 159.75L239.84 159.87L236.05 159.94L232.26 159.99L228.47 160L224.68 160L220.9 159.99L217.12 159.96L213.35 159.92L209.61 159.85L205.88 159.76L202.17 159.63L198.5 159.47L194.87 159.26L191.28 159.01L187.73 158.71L184.23 158.35L180.79 157.94L177.41 157.46L174.09 156.9L170.85 156.28L167.68 155.57L164.59 154.79L161.58 153.91L158.67 152.94L155.85 151.88L153.13 150.71L150.51 149.43L148 148.05L145.61 146.54L143.33 144.92L141.18 143.17L139.16 141.29L137.27 139.28L135.52 137.13L133.92 134.83L132.46 132.38L131.16 129.78L130.01 127.03L129.03 124.11L128.21 121.02L127.57 117.76L127.1 114.33L126.82 110.71L126.73 106.9L126.84 103.01L127.19 99.14L127.75 95.3L128.53 91.48L129.52 87.69L130.7 83.93L132.08 80.22L133.65 76.55L135.39 72.92L137.31 69.35L139.39 65.84L141.63 62.39L144.02 59L146.55 55.67L149.22 52.42L152.02 49.25L154.94 46.16L157.98 43.16L161.13 40.24L164.38 37.42L167.72 34.69L171.15 32.06L174.66 29.55L178.25 27.14L181.9 24.84L185.61 22.66L189.37 20.61L193.18 18.68L197.03 16.88L200.91 15.22L204.81 13.7L208.74 12.32L212.67 11.08L216.6 10L220.53 9.07L224.45 8.3L228.36 7.7L232.24 7.26L236.08 6.99L239.89 6.9L243.66 6.98L247.39 7.22L251.08 7.6L254.72 8.14L258.31 8.82L261.86 9.64L265.35 10.61L268.79 11.71L272.16 12.94L275.48 14.31L278.73 15.8L281.91 17.42L285.02 19.16L288.06 21.02L291.02 23L293.89 25.08L296.69 27.28L299.4 29.58L302.02 31.99L304.55 34.5L305.01 34.99L305.51 34.09L306.33 32.68L306.47 32.44L306.61 32.21L306.75 31.98L306.89 31.74L307.03 31.51L307.17 31.28L307.31 31.06L307.45 30.83L307.6 30.61L307.74 30.38L307.88 30.16L308.02 29.94L308.17 29.72L308.31 29.5L308.45 29.28L308.6 29.07L308.74 28.85L308.88 28.64L309.03 28.43L309.17 28.22L309.32 28.01L309.46 27.8L309.61 27.6L309.75 27.39L309.9 27.19L310.05 26.99L310.19 26.79L310.34 26.59L310.49 26.39L310.63 26.2L310.78 26L310.93 25.81L311.08 25.62L311.22 25.43L311.37 25.24L311.52 25.06L311.67 24.87L311.82 24.69L311.97 24.51L312.12 24.33L313.38 22.86L314.67 21.47L315.98 20.17L317.31 18.95L318.65 17.8L320.02 16.72L321.41 15.72L322.81 14.78L324.24 13.91L325.68 13.11L327.15 12.37L328.64 11.68L330.14 11.06L331.67 10.49L333.22 9.97L334.78 9.5L336.37 9.07L337.98 8.7L339.61 8.36L341.26 8.07L342.92 7.81L344.61 7.59L346.33 7.4L348.06 7.24L349.81 7.11L351.58 7L353.38 6.92L355.19 6.86L357.03 6.82L358.89 6.8L360.76 6.78L362.66 6.78L364.59 6.79L366.53 6.81Z" id="c9XiDXptY"></path><path d="M248.57 160L200 160L185.48 200L190.24 235.48L205.71 267.62L209.29 240L210.48 192.62L240 170.48L316.43 145L248.57 160Z" id="bDDTiJIj1"></path><path d="M383.57 203.81C383.57 216.95 376.48 227.62 367.74 227.62C359 227.62 351.9 216.95 351.9 203.81C351.9 190.67 357.91 185.43 366.65 185.43C375.39 185.43 383.57 190.67 383.57 203.81Z" id="a1EaiAr2ev"></path><path d="M476.75 435.68C529.39 435.44 572.27 477.91 572.52 530.55C572.62 552.2 572.7 568.41 572.86 601.71C572.95 622.19 556.43 638.88 535.94 638.98C435.17 639.46 169.95 640.71 69.18 641.19C48.69 641.29 32 624.76 31.91 604.27C31.75 570.98 31.74 569.46 31.66 551.49C31.36 488.7 82.02 437.56 144.81 437.26C230.26 436.85 387.63 436.11 476.75 435.68Z" id="a6zvBHA4xL"></path><path d="M373.78 304.68C347.91 322.14 325.89 330.87 307.71 330.87C289.53 330.87 265.12 321.35 234.49 302.3C261.55 307.06 284.17 309.44 302.35 309.44C320.53 309.44 344.34 307.85 373.78 304.68Z" id="b2EOgOVnAM"></path><path d="M222.8 350.82C212.59 334.48 210.1 314.47 215.99 296.13C218.18 289.29 214.24 301.56 216.13 295.69C223.11 273.93 222.03 250.39 213.09 229.36C208.72 219.07 207.62 216.48 202.79 205.11C195.35 187.6 194.64 167.95 200.8 149.95C204.36 139.54 207.96 129.05 212.14 116.83C215.31 107.56 208.42 97.91 198.61 97.91C185.47 97.91 166.04 97.91 152.9 97.91C140.9 97.91 130.2 105.45 126.16 116.74C126.16 116.74 126.16 116.74 126.16 116.74C133.59 128.62 119.58 145.46 113.88 157.91C112.88 160.11 104.79 171.52 103.38 173.55C99.89 178.57 95.44 200.98 90.04 240.77L95.99 291.24C94.2 294.66 93.07 296.79 92.62 297.64C85.59 310.98 81.65 325.73 81.07 340.8C80.63 352.38 79.53 381.32 77.76 427.62L87.41 439.24C87.41 439.24 87.41 439.24 87.41 439.24C116.02 447.69 146.94 442.07 170.76 424.1C170.76 424.1 170.76 424.1 170.76 424.1C170.76 424.1 170.76 424.1 170.76 424.1C173.63 432.73 185.95 432.43 188.4 423.67C188.43 423.57 188.5 423.32 188.61 422.91C188.61 422.91 188.61 422.91 188.61 422.91C201.62 435.81 223.74 429.29 227.66 411.39C229.38 403.58 228.36 408.23 230.8 397.12C234.28 381.23 231.41 364.62 222.8 350.82C219.58 345.67 225.48 355.12 222.8 350.82Z" id="b2SGCDmIR5"></path><path d="" id="b5RQsbl17m"></path><path d="M217.71 442.35C232.82 428.23 239.87 407.49 236.49 387.09C235.91 383.54 234.44 374.67 232.09 360.48L206.71 318.58C206.7 318.58 206.69 318.58 206.69 318.58C178 317.55 160.59 286.5 174.66 261.48C176.62 257.99 168.49 272.45 174.66 261.48C179.05 253.68 173.41 244.05 164.47 244.05C151.32 244.05 131.9 244.05 118.75 244.05C106.76 244.05 96.06 251.58 92.02 262.88C92.02 262.88 92.02 262.88 92.02 262.88C99.44 274.76 85.44 291.6 79.74 304.05C78.73 306.24 70.64 317.65 69.23 319.68C65.74 324.71 61.3 347.11 55.9 386.9L51.13 437.38C47.75 448.78 45.64 455.9 44.79 458.75C44.79 458.75 31.34 502.55 31.34 502.55C28.56 511.31 25.33 521.49 22.09 531.68C20.58 536.42 25.96 540.35 30.02 537.49C33.12 535.3 40.87 529.84 53.26 521.09L76.84 516.33L112.52 510.84C123.14 510.86 129.78 510.87 132.44 510.88C153.37 510.92 172.4 498.74 181.12 479.7C181.12 479.7 181.12 479.7 181.12 479.7L201.25 468.5C206.47 459.1 209.74 453.23 211.04 450.88C212.8 447.7 215.05 444.82 217.71 442.35C222.55 437.83 216.91 443.09 217.71 442.35Z" id="aJYMM4x1"></path><path d="M294.41 26.93C290.32 23.81 287.77 21.87 286.75 21.09C284.15 19.11 281.4 17.35 278.52 15.84C275.46 14.24 279.38 16.3 278.52 15.84C268.42 10.55 257.36 7.35 246 6.42C242.98 6.18 245.49 6.38 241.06 6.02C234.33 5.48 227.56 6.17 221.09 8.07C217.31 9.18 223.05 7.5 221.09 8.07C208.55 11.75 196.52 16.98 185.28 23.64C179.99 26.78 180.52 26.46 175.1 29.68C164.34 36.05 154.93 44.46 147.38 54.43C143.57 59.47 134.05 72.05 118.81 92.19C115.15 98.77 112.87 102.88 111.96 104.53C107.81 112 104.45 119.88 101.94 128.05C100.37 133.14 96.44 145.89 90.17 166.29L84.29 193.38L78.81 230.02C78.55 237.6 78.39 242.33 78.33 244.23C77.54 267.55 74.1 290.72 68.08 313.27C68.08 313.27 68.08 313.27 68.08 313.27L23.62 531.57C46.27 494 60.43 470.52 66.1 461.13C75.9 444.89 82.02 426.69 84.04 407.82C85.86 390.72 85.95 389.93 87.19 378.29C91.17 341.13 99.94 304.65 113.28 269.74C114.74 265.92 118.4 256.36 124.24 241.07L164.24 117.81C177.13 100.57 185.19 89.79 188.41 85.48C200.37 69.48 217.35 57.96 236.64 52.76C245.5 50.37 267.67 44.39 303.13 34.83L294.41 26.93Z" id="f4POTKS6JX"></path><path d="M480 188.45C480 205.86 467.09 220 451.19 220C435.29 220 422.38 205.86 422.38 188.45C422.38 171.04 435.29 156.9 451.19 156.9C467.09 156.9 480 171.04 480 188.45Z" id="e5Z5x3oAv"></path><path d="M458.95 220C458.95 225.52 454.47 230 448.95 230C443.44 230 438.95 225.52 438.95 220C438.95 214.48 443.44 210 448.95 210C454.47 210 458.95 214.48 458.95 220Z" id="d1ocLImKMg"></path><path d="M177.14 148.57C177.14 159.74 158.35 175.95 145.48 175.95C132.6 175.95 130.48 159.74 130.48 148.57C130.48 137.4 150.46 120 163.33 120C176.21 120 177.14 137.4 177.14 148.57Z" id="c2jusMlgd"></path><path d="M204.46 105.64C208.41 102.99 213.78 105.28 214.6 109.97C216.15 118.88 219.08 135.64 220.64 144.56C221.55 149.79 217.58 154.62 212.26 154.72C201.81 154.92 180.57 155.32 170.12 155.52C164.56 155.63 160 151.15 160 145.6C160 143.57 160 147.62 160 145.6C160 139.27 163.15 133.36 168.4 129.84C177.29 123.87 195.56 111.61 204.46 105.64Z" id="e8I0eFyk8"></path><path d="M103.22 189.88C99.27 192.54 93.9 190.24 93.08 185.55C91.52 176.64 88.59 159.88 87.04 150.97C86.12 145.73 90.09 140.91 95.41 140.81C105.87 140.61 127.11 140.2 137.56 140C143.11 139.9 147.68 144.37 147.68 149.93C147.68 151.95 147.68 147.9 147.68 149.93C147.68 156.25 144.53 162.16 139.27 165.69C130.38 171.65 112.11 183.92 103.22 189.88Z" id="eqeGKyUMa"></path><path d="M88.17 157.9C90.13 166.63 89.86 182.16 93.34 190.4C94.32 192.72 94.54 189.54 95.64 191.81C95.67 191.88 95.78 192.03 95.99 192.26C100 196.8 107.47 194.77 108.64 188.83C110.75 178.09 115.48 154.05 117.91 141.73C118.51 138.64 115.71 135.97 112.66 136.73C107.12 138.11 96.98 140.64 91.42 142.03C87.84 142.92 85.63 146.51 86.43 150.12C85.47 145.8 86.05 148.39 88.17 157.9Z" id="bqOCPfX7k"></path><path d="M147.14 151.31C147.14 167.14 163.23 176.43 147.86 176.43C132.48 176.43 128.33 167.14 128.33 151.31C128.33 140.75 138.02 130.32 157.38 120C150.56 130.32 147.14 140.75 147.14 151.31Z" id="b1HJxTOcST"></path><path d="M263.33 203.81C263.33 216.95 256.24 227.62 247.5 227.62C238.76 227.62 231.67 216.95 231.67 203.81C231.67 190.67 238.76 185.43 247.5 185.43C256.24 185.43 263.33 190.67 263.33 203.81Z" id="d9DACL4Ra"></path><path d="M184.76 143.21C184.76 149.46 186.83 154.52 180 154.52C173.17 154.52 160 149.46 160 143.21C160 136.97 173.17 123.57 180 123.57C186.83 123.57 184.76 136.97 184.76 143.21Z" id="b14HqM5nCj"></path><path d="M318.81 522.28C318.81 533.78 310.27 543.12 299.76 543.12C289.25 543.12 280.71 533.78 280.71 522.28C280.71 510.78 289.25 501.45 299.76 501.45C310.27 501.45 318.81 510.78 318.81 522.28Z" id="fw3GgefTs"></path><path d="M317.38 599.42C317.38 610.92 308.85 620.26 298.33 620.26C287.82 620.26 279.29 610.92 279.29 599.42C279.29 587.93 287.82 578.59 298.33 578.59C308.85 578.59 317.38 587.93 317.38 599.42Z" id="a1RAKzvl0V"></path><path d="M560.82 613.25C567.21 613.25 572.38 618.43 572.38 624.81C572.38 627.74 572.38 624.95 572.38 627.88C572.38 634.26 567.21 639.44 560.82 639.44C536.23 639.44 474.01 639.44 449.42 639.44C443.03 639.44 437.86 634.26 437.86 627.88C437.86 624.95 437.86 627.74 437.86 624.81C437.86 618.43 443.03 613.25 449.42 613.25C474.01 613.25 536.23 613.25 560.82 613.25Z" id="d1EBbPYSSr"></path><path d="M152.25 617.46C158.63 617.46 163.81 622.64 163.81 629.02C163.81 631.95 163.81 629.17 163.81 632.09C163.81 638.48 158.63 643.65 152.25 643.65C127.66 643.65 65.44 643.65 40.85 643.65C34.46 643.65 29.29 638.48 29.29 632.09C29.29 629.17 29.29 631.95 29.29 629.02C29.29 622.64 34.46 617.46 40.85 617.46C65.44 617.46 127.66 617.46 152.25 617.46Z" id="e2ThigjkmN"></path><path d="M420 206.05C420 233.94 397.11 256.59 368.91 256.59C352.84 256.59 336.32 257.93 326.95 246.43C319.88 237.76 317.83 218.04 317.83 206.05C317.83 192.38 317.89 188.66 326.81 179.56C336.1 170.09 354.53 173.98 368.91 173.98C378.59 173.98 395.73 173 420.34 171.03C421.14 170.97 421.81 171.64 421.75 172.44C420.58 186.49 420 197.69 420 206.05Z" id="bhcB3s2jR"></path><path d="M310.22 201.15L310.22 201.15L295 201.15L310.22 201.15Z" id="a2UT0Wzk1d"></path><path d="M318.91 203.33C317.94 202.92 317.33 202.67 317.09 202.57C309.96 199.6 301.9 199.88 295 203.33C295 203.33 295 203.33 295 203.33" id="aAsSc0SRu"></path><path d="M193.92 208.65C193.92 236.55 216.82 259.2 245.01 259.2C261.08 259.2 277.61 260.54 286.97 249.04C294.04 240.37 296.1 220.65 296.1 208.65C296.1 194.99 296.04 191.27 287.11 182.17C277.83 172.7 259.39 176.59 245.01 176.59C235.34 176.59 218.2 175.61 193.58 173.64C192.78 173.58 192.11 174.25 192.18 175.05C193.34 189.09 193.92 200.3 193.92 208.65Z" id="cLM68bV"></path></defs><g><g><g><use xlink:href="#bSDhDbNYM" opacity="1" fill="#edc182" fill-opacity="1"></use></g><g><use xlink:href="#a2RHpHZbI" opacity="1" fill="#e6b164" fill-opacity="1"></use><g><use xlink:href="#a2RHpHZbI" opacity="1" fill-opacity="0" stroke="#e6b164" stroke-width="1" stroke-opacity="1"></use></g></g><g><use xlink:href="#a1DWsiVPXf" opacity="1" fill="#0a0a60" fill-opacity="1"></use></g><g><use xlink:href="#b1TNRGgGCZ" opacity="1" fill="#edc182" fill-opacity="1"></use></g><g><use xlink:href="#c9XiDXptY" opacity="1" fill="#7b5621" fill-opacity="1"></use></g><g><use xlink:href="#bDDTiJIj1" opacity="1" fill="#e6b164" fill-opacity="1"></use><g><use xlink:href="#bDDTiJIj1" opacity="1" fill-opacity="0" stroke="#e6b164" stroke-width="1" stroke-opacity="1"></use></g></g><g><use xlink:href="#a1EaiAr2ev" opacity="1" fill="#4d391b" fill-opacity="1"></use></g><g><use xlink:href="#a6zvBHA4xL" opacity="1" fill="#030321" fill-opacity="1"></use></g><g><use xlink:href="#b2EOgOVnAM" opacity="1" fill="#d26752" fill-opacity="1"></use></g><g><use xlink:href="#b2SGCDmIR5" opacity="1" fill="#7b5621" fill-opacity="1"></use></g><g><g><use xlink:href="#b5RQsbl17m" opacity="1" fill-opacity="0" stroke="#000000" stroke-width="1" stroke-opacity="1"></use></g></g><g><use xlink:href="#aJYMM4x1" opacity="1" fill="#7b5621" fill-opacity="1"></use></g><g><use xlink:href="#f4POTKS6JX" opacity="1" fill="#68481a" fill-opacity="1"></use><g><use xlink:href="#f4POTKS6JX" opacity="1" fill-opacity="0" stroke="#68481a" stroke-width="1" stroke-opacity="1"></use></g></g><g><use xlink:href="#e5Z5x3oAv" opacity="1" fill="#edc182" fill-opacity="1"></use></g><g><use xlink:href="#d1ocLImKMg" opacity="1" fill="#a4202f" fill-opacity="1"></use></g><g><use xlink:href="#c2jusMlgd" opacity="1" fill="#ae2131" fill-opacity="1"></use></g><g><use xlink:href="#e8I0eFyk8" opacity="1" fill="#ae2131" fill-opacity="1"></use></g><g><use xlink:href="#eqeGKyUMa" opacity="1" fill="#ae2131" fill-opacity="1"></use></g><g><use xlink:href="#bqOCPfX7k" opacity="1" fill="#811e2a" fill-opacity="1"></use><g><use xlink:href="#bqOCPfX7k" opacity="1" fill-opacity="0" stroke="#811e2a" stroke-width="1" stroke-opacity="1"></use></g></g><g><use xlink:href="#b1HJxTOcST" opacity="1" fill="#841b28" fill-opacity="1"></use></g><g><use xlink:href="#d9DACL4Ra" opacity="1" fill="#4d391b" fill-opacity="1"></use></g><g><use xlink:href="#b14HqM5nCj" opacity="1" fill="#841b28" fill-opacity="1"></use></g><g><use xlink:href="#fw3GgefTs" opacity="1" fill="#ffffff" fill-opacity="1"></use></g><g><use xlink:href="#a1RAKzvl0V" opacity="1" fill="#ffffff" fill-opacity="1"></use></g><g><use xlink:href="#d1EBbPYSSr" opacity="1" fill="#891c2a" fill-opacity="1"></use></g><g><use xlink:href="#e2ThigjkmN" opacity="1" fill="#891c2a" fill-opacity="1"></use></g><g><g><use xlink:href="#bhcB3s2jR" opacity="1" fill-opacity="0" stroke="#924067" stroke-width="3.78" stroke-opacity="1"></use></g></g><g><use xlink:href="#a2UT0Wzk1d" opacity="1" fill="#891c2a" fill-opacity="1"></use></g><g><g><use xlink:href="#aAsSc0SRu" opacity="1" fill-opacity="0" stroke="#654618" stroke-width="1" stroke-opacity="1"></use></g></g><g><g><use xlink:href="#cLM68bV" opacity="1" fill-opacity="0" stroke="#924067" stroke-width="3.78" stroke-opacity="1"></use></g></g></g></g></svg>